<?xml version="1.0" standalone="no"?>
<!DOCTYPE svg PUBLIC "-//W3C//DTD SVG 20010904//EN"
 "http://www.w3.org/TR/2001/REC-SVG-20010904/DTD/svg10.dtd">
<svg version="1.0" xmlns="http://www.w3.org/2000/svg"
 width="1135.000000pt" height="1135.000000pt" viewBox="0 0 1135.000000 1135.000000"
 preserveAspectRatio="xMidYMid meet">
<metadata>
Created by potrace 1.14, written by Peter Selinger 2001-2017
</metadata>
<g transform="translate(0.000000,1135.000000) scale(0.100000,-0.100000)"
fill="#000000" stroke="none">
<path d="M5275 11330 c-717 -58 -1361 -226 -1994 -519 -618 -286 -1242 -734
-1693 -1214 -435 -464 -727 -883 -993 -1422 -304 -618 -480 -1242 -557 -1975
-18 -169 -18 -871 0 -1040 57 -547 166 -1016 343 -1485 l49 -130 899 3 899 2
-65 113 c-272 474 -431 955 -510 1537 -26 192 -26 787 0 970 173 1233 806
2244 1822 2912 275 180 639 352 980 461 658 211 1420 244 2104 91 1101 -245
2038 -927 2614 -1902 278 -468 455 -993 534 -1580 25 -186 25 -741 0 -937 -76
-583 -246 -1095 -525 -1575 -28 -47 -49 -86 -48 -87 2 -2 405 -3 897 -3 l894
-1 28 68 c51 122 174 505 215 668 71 280 115 530 149 845 25 232 25 875 0
1100 -81 718 -248 1310 -537 1906 -217 449 -478 848 -803 1229 -140 165 -486
509 -637 635 -747 621 -1543 1012 -2482 1220 -141 31 -470 81 -663 100 -142
15 -777 21 -920 10z m587 -655 c35 -69 65 -125 68 -125 3 0 37 51 75 113 71
112 71 112 113 115 23 2 42 1 42 -3 0 -3 -45 -75 -100 -160 -98 -151 -100
-156 -100 -213 0 -33 -3 -80 -6 -106 -7 -47 -7 -47 -42 -44 l-35 3 2 111 2
112 -80 154 c-45 85 -81 158 -81 161 0 4 18 7 40 7 l40 0 62 -125z m-524 81
c41 -21 76 -91 76 -151 0 -99 -65 -158 -189 -170 -33 -3 -75 -8 -93 -11 l-33
-5 7 -100 7 -100 -39 3 -39 3 -22 225 c-12 124 -22 244 -22 266 l-1 42 108 10
c123 12 202 8 240 -12z m1370 -62 c100 -20 182 -40 182 -45 0 -4 -4 -19 -9
-32 l-10 -25 -63 14 c-35 7 -70 13 -79 14 -13 0 -24 -41 -58 -212 -55 -276
-46 -251 -89 -243 -21 4 -38 8 -39 9 -2 1 18 105 43 231 33 166 43 230 34 235
-6 4 -43 13 -81 19 -38 7 -69 16 -69 19 1 30 15 52 34 52 11 0 103 -16 204
-36z m586 -157 c16 -11 14 -19 -19 -111 -20 -54 -34 -100 -32 -102 11 -11 243
-91 248 -86 3 4 21 49 39 100 l33 94 31 -6 c17 -4 34 -10 38 -14 4 -4 -33
-118 -82 -252 -50 -134 -90 -245 -90 -247 0 -7 -43 -2 -60 7 -19 10 -18 14 14
103 19 50 39 104 44 118 l11 27 -126 46 c-70 25 -128 45 -129 43 -2 -2 -21
-52 -43 -112 -39 -110 -39 -110 -71 -108 -18 0 -36 5 -40 10 -4 4 33 119 83
256 80 214 94 247 112 247 12 0 29 -6 39 -13z m-3163 -54 c41 -35 69 -96 69
-155 0 -39 -6 -54 -31 -83 -18 -20 -30 -37 -28 -39 84 -68 168 -151 162 -157
-5 -5 -22 -11 -38 -14 -26 -5 -40 4 -113 69 l-84 75 -71 -26 c-40 -15 -73 -27
-75 -28 -1 -1 13 -45 32 -98 l35 -96 -35 -11 c-19 -7 -36 -10 -38 -8 -12 15
-177 490 -174 499 2 7 58 31 124 55 149 54 216 58 265 17z m-746 -328 c83 -47
167 -188 173 -291 2 -35 2 -75 -2 -88 -15 -62 -124 -145 -221 -171 -92 -23
-146 -5 -217 73 -90 101 -137 240 -109 325 14 41 90 116 151 147 84 43 155 44
225 5z m4820 -12 c68 -35 119 -77 146 -119 32 -52 24 -148 -19 -236 -38 -78
-108 -159 -156 -182 -51 -24 -131 -20 -196 10 -126 58 -188 142 -177 237 12
94 93 235 168 288 64 45 147 46 234 2z m-5527 -378 c-2 -7 -50 -50 -108 -95
-58 -46 -107 -84 -109 -86 -2 -2 20 -33 49 -69 l52 -65 56 44 c31 24 77 60
102 79 41 34 46 35 62 20 10 -9 18 -20 18 -24 0 -6 -169 -147 -198 -165 -2 -1
30 -45 72 -98 42 -52 76 -99 76 -103 -1 -14 -51 -46 -60 -37 -50 55 -320 409
-317 417 1 5 63 58 137 117 126 101 136 107 153 92 10 -9 16 -21 15 -27z
m6157 -55 c3 -4 -9 -111 -25 -236 -17 -125 -29 -235 -28 -243 2 -8 61 56 132
142 71 87 132 157 135 157 17 -1 52 -41 45 -52 -12 -20 -323 -396 -333 -402
-4 -3 -23 7 -41 22 l-33 28 32 234 c17 129 31 241 31 248 0 7 -57 -56 -126
-140 -69 -84 -130 -157 -134 -162 -9 -9 -59 23 -60 37 0 8 179 229 288 355
l54 62 29 -20 c15 -12 31 -25 34 -30z m592 -539 l21 -27 -176 -165 c-237 -221
-218 -208 -249 -177 l-25 26 78 74 c171 162 319 298 324 297 3 0 15 -12 27
-28z m-7592 -367 l69 -167 83 -65 c46 -36 83 -70 83 -77 0 -7 -9 -20 -20 -30
-19 -17 -22 -16 -101 45 -90 70 -95 72 -299 96 -80 9 -148 20 -152 23 -4 3 5
19 18 35 l25 28 117 -16 c64 -9 129 -19 144 -22 l27 -5 -55 126 c-29 69 -54
132 -54 138 0 16 29 57 39 57 5 0 39 -75 76 -166z m7892 -15 c57 -21 133 -114
153 -188 14 -53 1 -96 -40 -136 -29 -28 -30 -28 -50 -10 -25 23 -25 37 -1 59
44 40 27 119 -39 184 -44 42 -81 42 -122 2 -34 -35 -33 -50 13 -165 53 -134
48 -196 -20 -241 -103 -68 -190 -41 -270 84 -60 94 -58 164 7 225 l30 28 20
-29 21 -29 -24 -23 c-44 -41 -28 -115 39 -189 32 -35 61 -43 101 -27 64 27 69
82 19 193 -14 32 -28 85 -31 118 -6 71 11 100 79 134 48 24 74 26 115 10z
m426 -621 c24 -46 67 -127 96 -180 l52 -97 -30 -16 -30 -15 -25 42 c-13 24
-30 55 -37 71 -7 15 -16 27 -22 27 -5 0 -98 -47 -207 -105 -110 -58 -203 -105
-208 -105 -10 0 -38 58 -31 64 2 2 95 52 207 111 111 59 202 109 202 111 0 3
-16 36 -36 75 -19 39 -34 72 -32 74 9 7 44 24 50 25 3 0 26 -37 51 -82z
m-8835 -35 c54 -31 145 -85 204 -119 l107 -63 62 107 c35 59 64 109 66 111 6
8 53 -18 53 -29 0 -17 -152 -271 -165 -276 -10 -4 -415 228 -452 258 -10 8 -9
16 4 39 10 16 19 29 21 29 2 0 47 -26 100 -57z m-58 -483 c129 -50 236 -93
237 -94 5 -4 -30 -86 -36 -86 -15 0 -474 -89 -477 -93 -2 -2 81 -36 184 -76
103 -41 190 -76 194 -80 9 -8 -19 -74 -29 -68 -5 3 -114 46 -243 97 -129 50
-239 95 -244 100 -5 5 0 25 10 47 l19 38 245 46 c204 39 241 48 220 57 -14 5
-101 40 -195 77 -93 36 -171 68 -174 70 -2 2 2 18 9 35 9 21 18 30 29 27 9 -2
122 -46 251 -97z m9226 -215 c7 -19 14 -41 14 -49 0 -14 -422 -366 -439 -366
-3 0 -12 15 -19 32 -12 32 -11 34 40 79 l53 47 -19 53 c-10 30 -27 78 -38 107
l-19 52 -70 0 c-65 0 -70 2 -79 26 -22 56 -34 54 276 54 l285 0 15 -35z
m-9466 -524 c170 -45 230 -138 195 -302 -30 -148 -97 -209 -228 -209 -124 0
-239 41 -295 104 -37 42 -46 83 -40 179 8 118 63 210 140 234 53 17 148 15
228 -6z m9620 -100 c14 -10 36 -38 50 -62 22 -38 25 -56 25 -136 0 -88 -1 -93
-29 -122 -27 -28 -91 -59 -102 -49 -2 3 -7 19 -10 36 -6 27 -3 32 20 38 62 15
84 98 50 184 -18 45 -38 60 -82 60 -58 0 -73 -25 -84 -136 -10 -118 -21 -163
-48 -196 -40 -51 -162 -60 -210 -16 -32 30 -67 114 -75 179 -9 76 7 132 49
164 40 30 96 44 96 24 0 -8 3 -23 6 -35 4 -17 -2 -23 -35 -36 -49 -20 -66 -65
-50 -136 19 -88 41 -112 100 -112 68 0 83 30 93 173 9 133 38 183 114 198 48
9 90 2 122 -20z"/>
<path d="M5096 10703 c-27 -4 -28 -6 -22 -46 3 -23 8 -72 12 -109 6 -66 7 -67
33 -63 14 2 52 7 84 10 108 10 147 53 127 140 -14 61 -38 75 -129 74 -42 -1
-89 -4 -105 -6z"/>
<path d="M3915 10419 c-44 -17 -81 -32 -84 -34 -4 -5 58 -186 68 -197 8 -9
178 56 201 77 37 34 29 117 -15 161 -32 32 -71 30 -170 -7z"/>
<path d="M3173 10080 c-69 -40 -93 -75 -93 -138 0 -66 54 -175 115 -231 39
-35 51 -41 90 -41 58 0 102 19 154 65 50 45 59 83 37 158 -20 68 -89 173 -130
198 -47 29 -111 25 -173 -11z"/>
<path d="M8029 10083 c-38 -26 -74 -72 -109 -138 -23 -44 -30 -70 -30 -115 0
-69 19 -97 94 -140 96 -56 167 -34 238 70 65 96 84 181 53 240 -8 16 -36 44
-62 62 -59 40 -142 50 -184 21z"/>
<path d="M10183 7393 c-29 -2 -53 -7 -53 -11 0 -7 51 -154 56 -160 4 -6 213
162 213 171 1 7 -112 7 -216 0z"/>
<path d="M824 6841 c-44 -11 -51 -17 -80 -67 -20 -34 -27 -59 -27 -107 -2 -98
40 -142 164 -172 131 -30 206 -12 246 60 48 85 39 184 -20 229 -62 46 -209 76
-283 57z"/>
<path d="M5430 9550 c-527 -30 -855 -208 -1021 -555 -53 -110 -92 -244 -109
-375 -15 -110 -15 -378 0 -505 31 -273 137 -607 261 -825 99 -175 253 -374
348 -449 l41 -33 0 -668 0 -669 -792 -3 c-788 -3 -793 -3 -858 -25 -151 -52
-279 -162 -345 -297 -109 -221 -78 -521 72 -696 20 -23 34 -42 32 -44 -2 -2
-38 -8 -79 -15 -235 -38 -418 -204 -476 -432 -21 -83 -16 -325 9 -382 l16 -37
84 0 85 0 -25 67 c-32 90 -34 262 -3 350 46 133 155 232 295 269 41 11 523 14
2710 14 2938 0 2720 5 2834 -63 69 -42 126 -106 164 -187 27 -57 31 -77 35
-176 4 -108 -6 -170 -45 -262 -4 -10 14 -12 84 -10 l88 3 17 65 c24 93 23 256
-2 354 -26 105 -62 167 -144 254 -89 94 -208 156 -332 174 l-82 12 54 70 c120
157 155 392 88 594 -58 176 -190 307 -377 375 l-62 22 -857 3 -858 3 0 666 0
666 108 111 c214 221 367 497 466 841 52 182 77 345 83 545 8 262 -17 444 -88
625 -113 290 -343 484 -676 570 -185 48 -476 70 -743 55z m353 -160 c360 -25
583 -106 752 -275 179 -177 255 -432 242 -804 -11 -317 -74 -575 -207 -846
-195 -400 -467 -659 -774 -739 -367 -96 -769 119 -1041 555 -204 328 -306 694
-308 1099 0 241 33 402 116 565 59 115 188 243 312 307 154 79 325 122 550
137 162 12 195 12 358 1z m-602 -2740 c81 -42 223 -88 292 -96 l57 -7 0 -245
0 -246 -85 -87 c-94 -96 -104 -121 -60 -164 44 -45 79 -35 157 42 l67 67 70
-67 c54 -53 76 -67 99 -67 46 0 63 10 77 44 19 44 5 69 -86 161 l-79 81 2 238
3 239 94 19 c89 18 238 72 288 104 12 8 27 14 33 14 7 0 10 -195 10 -605 l0
-605 -505 0 -505 0 0 605 c0 333 2 605 5 605 3 0 33 -14 66 -30z m2804 -1355
c223 -59 351 -268 316 -519 -21 -155 -108 -272 -248 -339 l-68 -32 -2286 -3
c-2194 -2 -2289 -1 -2346 16 -124 39 -225 132 -273 252 -28 69 -38 223 -20
301 38 164 156 286 315 325 39 10 545 12 2300 13 1995 1 2258 -1 2310 -14z"/>
<path d="M5340 8587 c-14 -7 -31 -25 -38 -39 -11 -23 -9 -35 14 -92 37 -94 57
-116 104 -116 30 0 43 6 59 26 12 15 21 36 21 47 0 25 -48 137 -69 159 -23 24
-62 30 -91 15z"/>
<path d="M5812 8585 c-39 -28 -87 -135 -83 -187 3 -47 83 -76 124 -45 21 16
77 139 77 171 0 55 -73 93 -118 61z"/>
<path d="M482 3418 c7 -18 62 -134 124 -258 285 -572 620 -1037 1068 -1485
270 -269 461 -430 766 -645 l143 -100 3093 0 3093 0 98 67 c831 565 1523 1377
1944 2282 38 80 69 152 69 159 0 9 -1047 12 -5204 12 l-5205 0 11 -32z m7907
-198 c218 -36 343 -221 328 -485 -12 -195 -94 -333 -242 -406 -60 -29 -80 -34
-165 -37 -166 -7 -269 39 -347 155 -51 77 -73 166 -73 300 0 211 78 361 224
433 92 46 169 57 275 40z m-6099 -131 l0 -120 -42 3 -43 3 -16 60 -16 60 -86
3 -87 3 0 -338 c0 -186 4 -343 8 -349 4 -6 25 -14 47 -18 73 -13 75 -14 75
-57 l0 -39 -197 2 -198 3 -3 29 c-5 38 9 49 71 61 l52 10 3 348 2 348 -82 -3
-81 -3 -16 -60 -16 -60 -43 -3 -42 -3 0 120 0 121 355 0 355 0 0 -121z m440
87 c0 -41 -5 -45 -74 -60 l-51 -11 0 -140 0 -140 213 -3 212 -2 0 144 0 143
-60 12 -60 12 0 40 0 39 190 0 190 0 0 -35 c0 -38 -13 -49 -73 -60 l-37 -7 0
-354 c0 -330 1 -354 18 -354 9 0 34 -5 55 -11 36 -10 38 -12 35 -47 l-3 -37
-187 -3 -188 -2 0 39 c0 43 4 46 74 56 l46 7 0 154 0 154 -215 0 -216 0 3
-152 3 -152 40 -8 c88 -17 85 -15 85 -58 l0 -40 -190 0 -190 0 0 40 c0 37 2
40 38 49 20 6 45 11 55 11 16 0 17 24 17 353 l0 354 -55 12 c-53 12 -55 14
-55 45 0 18 3 36 7 39 3 4 89 7 190 7 l183 0 0 -34z m1320 -77 l0 -110 -47 3
-46 3 -15 53 -15 52 -138 0 -139 0 0 -135 0 -135 150 0 150 0 0 -55 0 -55
-150 0 -150 0 0 -155 0 -155 150 0 c124 0 150 2 150 15 0 7 5 37 11 65 l11 50
44 0 44 0 0 -120 0 -120 -330 0 -330 0 0 40 c0 38 1 40 43 50 23 6 48 13 55
15 9 3 12 83 12 354 l0 349 -37 6 c-71 13 -73 15 -73 57 l0 39 325 0 325 0 0
-111z m964 90 c65 -24 126 -87 144 -147 30 -98 6 -230 -53 -299 -58 -68 -129
-95 -257 -101 l-108 -5 0 -114 c0 -82 3 -115 13 -118 6 -2 31 -9 55 -15 41
-10 42 -12 42 -51 l0 -39 -182 2 -183 3 -3 28 c-5 39 11 54 63 62 l45 6 0 353
0 354 -37 7 c-57 10 -73 22 -73 54 0 15 3 31 7 34 3 4 111 7 239 7 211 0 239
-2 288 -21z m526 -19 c0 -37 -2 -40 -40 -51 -22 -7 -40 -14 -40 -16 0 -13 160
-338 166 -337 9 2 187 334 182 339 -2 1 -23 8 -48 16 -42 13 -45 16 -45 49 l0
35 158 3 157 3 0 -40 c0 -38 -2 -41 -40 -52 -39 -12 -42 -17 -170 -249 l-131
-238 3 -113 3 -114 50 -10 c50 -11 50 -11 53 -53 l3 -42 -180 0 -181 0 0 40
c0 38 1 40 43 50 23 6 48 13 55 15 9 3 12 36 12 122 l-1 118 -124 230 -123
230 -46 13 c-43 12 -46 16 -46 46 0 18 3 36 7 39 3 4 78 7 165 7 l158 0 0 -40z
m1228 -77 c-3 -115 -4 -118 -27 -121 -53 -8 -67 4 -81 68 l-13 60 -83 0 -84 0
2 -347 3 -347 40 -8 c88 -17 85 -15 85 -58 l0 -40 -200 0 -200 0 0 40 c0 43
-3 41 85 58 l40 8 3 347 2 347 -84 0 -85 0 -12 -55 c-14 -65 -26 -77 -71 -73
l-33 3 -3 118 -3 117 361 0 361 0 -3 -117z m432 78 c0 -43 -4 -46 -74 -56
l-47 -7 3 -142 3 -141 210 0 210 0 0 139 0 140 -30 7 c-16 4 -42 10 -57 13
-25 6 -28 11 -28 46 l0 40 185 0 185 0 0 -40 c0 -35 -3 -40 -27 -46 -16 -3
-39 -9 -53 -13 l-25 -8 -3 -347 c-2 -272 0 -347 10 -351 7 -2 32 -9 56 -15 41
-10 42 -12 42 -50 l0 -40 -185 0 -185 0 0 40 c0 37 2 40 38 49 20 5 46 11 57
13 19 3 20 12 23 156 l3 152 -216 0 -216 0 3 -152 c3 -144 4 -153 23 -156 11
-2 37 -8 58 -13 35 -9 37 -12 37 -49 l0 -40 -186 0 -185 0 3 42 c3 42 3 42 53
53 l50 10 3 348 c2 273 0 348 -10 352 -7 2 -32 9 -55 15 -42 10 -43 12 -43 50
l0 40 185 0 185 0 0 -39z m2134 -316 c114 -195 210 -355 212 -355 2 0 4 135 4
300 0 232 -3 302 -12 305 -7 2 -32 9 -55 15 -42 10 -43 12 -43 50 l0 40 170 0
170 0 0 -39 0 -40 -55 -12 -55 -12 0 -404 0 -403 -84 0 -85 0 -202 338 c-111
185 -206 341 -210 347 -5 5 -9 -122 -9 -287 l0 -296 46 -7 c70 -10 74 -13 74
-56 l0 -39 -177 2 -178 3 -3 37 c-3 35 -1 37 35 47 21 6 46 11 56 11 16 0 17
24 17 354 l0 354 -37 7 c-57 10 -73 22 -73 54 0 15 3 31 7 34 3 4 67 7 142 7
l136 0 209 -355z m-5695 -811 c36 -9 80 -23 99 -31 35 -14 35 -15 28 -66 -3
-29 -6 -78 -6 -109 l0 -58 -50 0 c-49 0 -49 0 -59 38 -6 21 -14 53 -17 70 -9
44 -30 53 -139 59 -88 6 -98 4 -150 -21 -99 -49 -145 -138 -153 -301 -8 -173
33 -278 133 -340 45 -28 55 -30 139 -30 95 1 147 17 233 75 l31 21 26 -43 26
-43 -32 -28 c-18 -15 -67 -45 -108 -65 -73 -37 -76 -37 -195 -37 -120 0 -122
0 -199 38 -64 32 -85 49 -121 98 -73 99 -103 236 -85 383 13 104 32 161 80
234 101 157 290 213 519 156z m833 0 c153 -54 242 -190 255 -389 11 -161 -39
-316 -133 -409 -25 -25 -75 -60 -112 -78 -64 -32 -71 -33 -187 -33 -112 0
-124 2 -179 29 -109 54 -173 143 -202 282 -21 99 -14 253 14 336 65 194 220
296 429 282 40 -3 92 -12 115 -20z m921 -14 c57 -21 119 -77 136 -123 20 -51
13 -157 -13 -212 -20 -44 -84 -115 -104 -115 -4 0 -14 -4 -22 -10 -12 -7 -11
-12 5 -30 11 -12 52 -83 90 -158 l70 -137 48 -13 c46 -13 47 -14 47 -53 l0
-40 -102 3 -102 3 -71 151 c-101 219 -110 228 -208 240 l-57 7 0 -147 c0 -108
3 -148 13 -151 6 -2 31 -9 55 -15 41 -10 42 -12 42 -50 l0 -40 -180 0 -180 0
-6 27 c-10 38 7 57 60 67 34 7 48 15 52 30 2 12 3 169 2 351 l-3 330 -53 14
c-41 11 -54 19 -58 37 -14 54 -14 54 245 54 216 0 246 -2 294 -20z m672 -118
c44 -75 137 -234 207 -352 l128 -215 0 301 0 301 -52 14 c-51 14 -53 15 -53
49 l0 35 173 3 172 2 0 -34 c0 -39 -12 -49 -72 -60 l-38 -7 0 -405 0 -405 -87
3 -87 3 -205 343 c-114 188 -209 342 -213 342 -5 0 -8 -128 -8 -284 0 -215 3
-286 13 -294 6 -5 28 -13 47 -17 69 -13 70 -14 70 -56 l0 -39 -180 0 -180 0 0
40 c0 38 1 40 43 50 23 6 48 13 55 15 9 3 12 83 12 354 l0 350 -55 11 -55 11
0 40 0 39 143 0 142 -1 80 -137z m1325 28 l0 -110 -44 0 -44 0 -18 58 -19 57
-132 3 -133 3 0 -140 0 -140 148 -3 147 -3 3 -29 c2 -15 1 -39 -2 -52 -6 -24
-7 -24 -151 -24 l-145 0 0 -155 0 -155 144 0 144 0 14 63 13 62 45 0 45 0 0
-115 0 -115 -332 -3 -333 -2 0 39 c0 39 1 41 43 51 23 6 48 13 55 15 9 3 12
83 12 354 l0 350 -55 11 c-53 11 -55 13 -55 44 0 18 3 36 7 39 3 4 150 7 325
7 l318 0 0 -110z m707 78 c62 -33 97 -77 114 -141 26 -104 -16 -222 -98 -278
-27 -18 -50 -34 -52 -36 -3 -2 5 -16 16 -32 12 -15 51 -87 87 -159 l66 -131
42 -8 c42 -8 43 -10 46 -51 l3 -43 -101 3 -101 3 -66 145 c-69 152 -105 212
-138 230 -11 6 -45 11 -75 13 l-55 2 0 -144 0 -145 50 -10 c50 -11 50 -11 53
-54 l3 -42 -181 0 -181 0 3 42 c3 42 3 42 53 53 l50 10 3 351 2 351 -55 12
-55 12 0 40 0 40 258 -3 257 -3 52 -27z"/>
<path d="M8212 3097 c-90 -33 -144 -116 -163 -255 -14 -98 -1 -226 32 -302 49
-115 177 -168 300 -125 67 24 105 59 140 131 30 61 33 76 37 186 7 198 -35
304 -141 354 -58 27 -147 31 -205 11z"/>
<path d="M4740 2925 l0 -175 78 0 c137 0 203 51 210 163 3 51 -1 70 -20 106
-34 64 -73 81 -180 81 l-88 0 0 -175z"/>
<path d="M4222 1937 c-53 -20 -103 -67 -128 -122 -52 -113 -53 -318 -3 -435
66 -153 272 -187 393 -66 71 71 105 218 86 369 -23 181 -104 267 -250 266 -36
0 -80 -6 -98 -12z"/>
<path d="M5110 1796 l0 -156 74 0 c40 0 88 5 107 11 92 31 134 128 93 215 -26
55 -70 75 -179 81 l-95 6 0 -157z"/>
<path d="M7788 1944 c-5 -4 -8 -75 -8 -157 l0 -149 93 4 c69 3 102 9 127 24
95 55 96 202 3 257 -34 19 -201 36 -215 21z"/>
<path d="M2782 810 c97 -61 335 -185 515 -270 577 -269 1208 -439 1858 -500
273 -25 744 -28 995 -5 745 67 1379 244 2030 565 181 90 430 226 430 236 0 2
-1322 4 -2937 4 l-2938 0 47 -30z"/>
</g>
</svg>
